<svg width="10" height="16" viewBox="0 0 10 16" fill="none" xmlns="http://www.w3.org/2000/svg">
    <path d="M2.44708 0.391808L9.57812 7.05297C9.7118 7.17683 9.8179 7.32417 9.89032 7.48651C9.96272 7.64887 10 7.82299 10 7.99887C10 8.17473 9.96272 8.34887 9.89032 8.51121C9.8179 8.67355 9.7118 8.82091 9.57812 8.94475L2.44708 15.6059C2.3145 15.7308 2.15676 15.8299 1.98296 15.8975C1.80916 15.9652 1.62276 16 1.43448 16C1.2462 16 1.05978 15.9652 0.886 15.8975C0.7122 15.8299 0.55446 15.7308 0.42187 15.6059C0.288194 15.4821 0.182092 15.3347 0.109686 15.1724C0.037278 15.01 0 14.8359 0 14.66C0 14.4842 0.037278 14.31 0.109686 14.1477C0.182092 13.9853 0.288194 13.838 0.42187 13.7141L6.55456 7.99887L0.42187 2.28357C0.15331 2.03271 0.00243402 1.69247 0.00243402 1.33769C0.00243402 1.16203 0.039474 0.988068 0.111442 0.825768C0.183408 0.663488 0.288892 0.516008 0.42187 0.391808C0.69044 0.140934 1.05468 0 1.43448 0C1.62254 0 1.80876 0.0346019 1.9825 0.101826C2.15624 0.169052 2.3141 0.267584 2.44708 0.391808Z" fill="black"/>
</svg>
