<svg width="6" height="9" viewBox="0 0 6 9" fill="none" xmlns="http://www.w3.org/2000/svg">
<path d="M2.00479 1.01231L5.57031 4.34289C5.63715 4.40482 5.6902 4.47849 5.72641 4.55966C5.76261 4.64084 5.78125 4.7279 5.78125 4.81584C5.78125 4.90377 5.76261 4.99084 5.72641 5.07201C5.6902 5.15318 5.63715 5.22686 5.57031 5.28878L2.00479 8.61937C1.9385 8.6818 1.85963 8.73136 1.77273 8.76518C1.68583 8.799 1.59263 8.81641 1.49849 8.81641C1.40435 8.81641 1.31114 8.799 1.22425 8.76518C1.13735 8.73136 1.05848 8.6818 0.992185 8.61937C0.925347 8.55744 0.872296 8.48377 0.836093 8.4026C0.799889 8.32143 0.78125 8.23436 0.78125 8.14643C0.78125 8.05849 0.799889 7.97143 0.836093 7.89025C0.872296 7.80908 0.925347 7.73541 0.992185 7.67348L4.05853 4.81584L0.992185 1.95819C0.857905 1.83276 0.782467 1.66264 0.782467 1.48525C0.782467 1.39742 0.800987 1.31044 0.836971 1.22929C0.872954 1.14815 0.925696 1.07441 0.992185 1.01231C1.12647 0.886873 1.30859 0.816406 1.49849 0.816406C1.59252 0.816406 1.68563 0.833707 1.7725 0.867319C1.85937 0.900932 1.9383 0.950198 2.00479 1.01231Z" fill="#6239EB"/>
</svg>
