<svg width="30" height="30" viewBox="0 0 30 30" fill="none" xmlns="http://www.w3.org/2000/svg">
<path fill-rule="evenodd" clip-rule="evenodd" d="M15.2008 0C7.24788 0 0.800781 6.4471 0.800781 14.4C0.800781 22.3529 7.24788 28.8 15.2008 28.8C23.1537 28.8 29.6008 22.3529 29.6008 14.4C29.6008 6.4471 23.1537 0 15.2008 0ZM8.1936 11.7267H11.457V21.5317H8.1936V11.7267ZM11.672 8.69362C11.6508 7.73224 10.9633 7 9.84695 7C8.73058 7 8.00073 7.73224 8.00073 8.69362C8.00073 9.63508 8.70901 10.3884 9.80459 10.3884H9.82545C10.9633 10.3884 11.672 9.63508 11.672 8.69362ZM19.4687 11.4965C21.6161 11.4965 23.226 12.8982 23.226 15.9098L23.2259 21.5317H19.9626V16.286C19.9626 14.9684 19.4904 14.0693 18.3091 14.0693C17.4075 14.0693 16.8705 14.6755 16.6346 15.2609C16.5484 15.4707 16.5272 15.763 16.5272 16.0561V21.532H13.2634C13.2634 21.532 13.3064 12.647 13.2634 11.727H16.5272V13.1158C16.9603 12.4482 17.736 11.4965 19.4687 11.4965Z" fill="#6239EB"/>
</svg>
