<svg width="30" height="29" viewBox="0 0 30 29" fill="none" xmlns="http://www.w3.org/2000/svg">
<circle cx="14.9004" cy="14.5" r="14.5" fill="#6239EB"/>
<path fill-rule="evenodd" clip-rule="evenodd" d="M10.0584 19.8077C9.03634 18.7856 9.03634 17.1239 10.0584 16.1018L12.4493 13.711L11.3136 12.5753L8.92278 14.9662C7.27308 16.6159 7.27308 19.2937 8.92278 20.9433C10.5725 22.593 13.2502 22.593 14.8999 20.9433L17.2908 18.5525L16.1551 17.4168L13.7643 19.8077C12.7422 20.8298 11.0805 20.8298 10.0584 19.8077ZM13.1061 17.9544L17.8878 13.1726L16.6924 11.9772L11.9107 16.7589L13.1061 17.9544ZM14.8992 8.98857L12.5083 11.3794L13.644 12.5151L16.0348 10.1242C17.0569 9.10214 18.7186 9.10214 19.7407 10.1242C20.7628 11.1463 20.7628 12.808 19.7407 13.8301L17.3498 16.2209L18.4855 17.3566L20.8763 14.9657C22.526 13.316 22.526 10.6383 20.8763 8.98857C19.2266 7.33888 16.5489 7.33888 14.8992 8.98857Z" fill="white"/>
</svg>
