<svg width="30" height="29" viewBox="0 0 30 29" fill="none" xmlns="http://www.w3.org/2000/svg">
<path fill-rule="evenodd" clip-rule="evenodd" d="M14.9996 0C7.04671 0 0.599609 6.4471 0.599609 14.4C0.599609 22.3529 7.04671 28.8 14.9996 28.8C22.9525 28.8 29.3996 22.3529 29.3996 14.4C29.3996 6.4471 22.9525 0 14.9996 0ZM14.5984 12.2028L14.5681 11.7045C14.4775 10.4131 15.2732 9.23351 16.5323 8.77592C16.9956 8.61322 17.7813 8.59288 18.295 8.73524C18.4964 8.79626 18.8792 8.99963 19.1511 9.18267L19.6447 9.51824L20.1886 9.34537C20.4908 9.25385 20.8937 9.10132 21.075 8.99963C21.2462 8.90811 21.3973 8.85727 21.3973 8.88778C21.3973 9.06065 21.0246 9.65044 20.7124 9.97584C20.2893 10.4334 20.4102 10.4741 21.2663 10.169C21.78 9.99618 21.7901 9.99618 21.6894 10.1894C21.629 10.2911 21.3167 10.647 20.9843 10.9724C20.4203 11.5317 20.39 11.5927 20.39 12.0604C20.39 12.7824 20.0476 14.2874 19.7051 15.1111C19.0705 16.6568 17.7108 18.2533 16.351 19.0566C14.4372 20.1853 11.8889 20.4701 9.74341 19.8091C9.02826 19.5854 7.79941 19.0159 7.79941 18.9142C7.79941 18.8837 8.1721 18.8431 8.62536 18.8329C9.57218 18.8125 10.519 18.5482 11.3248 18.0804L11.8687 17.755L11.2442 17.5414C10.3578 17.2364 9.5621 16.5347 9.36065 15.8738C9.30022 15.6602 9.32036 15.65 9.88442 15.65L10.4686 15.6399L9.97507 15.406C9.39087 15.1111 8.85703 14.6128 8.59514 14.1044C8.40376 13.7383 8.16202 12.8129 8.23253 12.7418C8.25268 12.7113 8.4642 12.7723 8.70594 12.8536C9.40094 13.1078 9.49159 13.0468 9.08869 12.6197C8.33326 11.8469 8.10159 10.6978 8.4642 9.60976L8.63543 9.12166L9.30022 9.78263C10.66 11.1147 12.2615 11.9079 14.0947 12.1418L14.5984 12.2028Z" fill="#6239EB"/>
</svg>
